# xmcd CD database file
#
# Track frame offsets:
#	180
#	21408
#	39095
#	60539
#	80870
#	108596
#	115715
#	130570
#	152115
#	157632
#	166682
#	176535
#	189379
#
# Disc length: 2830 seconds
#
# Revision: 0
# Processed by: cddbd v1.5.1PL0 Copyright (c) Steve Scherf et al.
# Submitted via: CDex 1.51
#
DISCID=930b0c0d
DTITLE=Saint-James Guillaume - Les Yeux d'Otta
DYEAR=1994
DGENRE=Jazz
TTITLE0=Capitaine Flam
TTITLE1=L'Amenthe
TTITLE2=Les Yeux d'Otta
TTITLE3=Emphase
TTITLE4=Sans titre
TTITLE5=le cinéma
TTITLE6=Ping pong
TTITLE7=Les cendres
TTITLE8=Quattro formaggi, Tome 1
TTITLE9=Quattro formaggi, Tome 2
TTITLE10=Quattro formaggi, Tome 3
TTITLE11=Quattro formaggi, Tome 4
TTITLE12=Cush (Hymne)
EXTD=YEAR: 1994
EXTT0=
EXTT1=
EXTT2=
EXTT3=
EXTT4=
EXTT5=
EXTT6=
EXTT7=
EXTT8=
EXTT9=
EXTT10=
EXTT11=
EXTT12=
PLAYORDER=
